:SAMPLES-PER-SECOND 30
:FULLY-SPECIFIED
:DEGREES
391
root  -70.5384 40.5703 -3.11972 -10.5281 -57.6777 9.73007
RightUpLeg  -9.51876 -10.9932 -9.79425
RightLeg  14.1575 19.6168 3.92209
RightFoot  -1.88805 -0.390137 4.55861
RightToes  -9.31324e-010 0 -3.6325e-017
Spine  5.61118 -2.18746 6.23215
Spine1  8.02617 -1.47012 -1.62847
HEad  -18.8013 2.96099 -3.88661
LeftShoulder1  0.122453 3.19679 -33.8071
LeftArm  0.0973972 10.3715 -33.9603
LeftForeArm  50.0429 -1.48289 -11.1638
LeftHand  -0.256365 9.52135 -5.34168
RightShoulder  -0.864388 -5.84782 30.2543
RightArm  26.2909 -4.93851 33.2067
RightForeArm  17.5229 10.7523 8.8698
RightHand  0.181669 1.77928 2.7622
LeftUpLeg  -9.36961 10.8126 -0.20901
LeftLeg  30.0031 -2.65182 -1.31194
LeftFoot  -7.65247 0.317002 -8.40949
LeftToes  8.61288e-010 -5.99147e-011 2.1039e-011
392
root  -70.5282 40.5742 -2.89881 -9.87335 -57.9009 9.10657
RightUpLeg  -9.20881 -11.4102 -9.79378
RightLeg  13.5813 20.2756 4.0078
RightFoot  -1.77452 -0.422621 4.90184
RightToes  -9.31324e-010 0 -3.6325e-017
Spine  5.26226 -1.98358 5.96412
Spine1  8.13733 -1.45975 -0.835044
HEad  -18.016 2.71726 -4.20251
LeftShoulder1  0.114048 3.21583 -33.3895
LeftArm  2.66055 17.0093 -30.3394
LeftForeArm  47.4343 -3.92586 -11.562
LeftHand  -0.140312 8.19255 -3.78164
RightShoulder  -0.78426 -5.67504 29.4876
RightArm  27.913 -5.16406 32.2683
RightForeArm  16.2052 11.282 8.94333
RightHand  0.0802369 1.75029 1.16546
LeftUpLeg  -9.10139 7.17476 1.15398
LeftLeg  29.5668 -2.4817 -1.1814
LeftFoot  -7.62394 0.281027 -7.24637
LeftToes  8.61288e-010 -5.99147e-011 2.1039e-011
393
root  -70.4763 40.5687 -2.64793 -10.0345 -58.6426 8.98145
RightUpLeg  -8.73974 -11.5869 -9.98442
RightLeg  13.1635 21.338 4.02894
RightFoot  -1.72965 -0.462145 5.35173
RightToes  -9.31324e-010 0 -3.6325e-017
Spine  5.3172 -1.71436 6.16779
Spine1  8.04423 -1.03647 -1.20294
HEad  -17.3422 2.29499 -4.00181
LeftShoulder1  0.0352325 3.41172 -32.4324
LeftArm  3.76167 22.777 -28.0826
LeftForeArm  43.3367 -5.71979 -11.0319
LeftHand  -0.172466 8.90319 -3.90392
RightShoulder  -0.79809 -5.72087 29.3664
RightArm  27.9264 -4.22656 31.6109
RightForeArm  16.204 10.5528 9.32736
RightHand  0.0467005 1.89864 0.609764
LeftUpLeg  -8.09886 4.21065 2.41143
LeftLeg  28.9164 -3.52515 -1.76862
LeftFoot  -7.64863 0.276526 -7.14867
LeftToes  8.61288e-010 -5.99147e-011 2.1039e-011
394
root  -70.3245 40.5261 -2.36774 -10.2001 -59.6305 8.93213
RightUpLeg  -8.73702 -11.6078 -10.1541
RightLeg  13.135 22.4226 4.06195
RightFoot  -1.72148 -0.506595 5.87527
RightToes  -9.31324e-010 0 -3.6325e-017
Spine  5.31651 -1.39939 6.27736
Spine1  8.03463 -0.594753 -1.44678
HEad  -16.8089 1.98365 -4.03905
LeftShoulder1  0.00687966 3.48411 -31.5584
LeftArm  2.24215 28.1071 -27.2056
LeftForeArm  39.6589 -6.98409 -9.81553
LeftHand  -0.165816 9.48953 -3.05844
RightShoulder  -0.812161 -5.75784 29.3875
RightArm  26.1491 -2.82236 31.4509
RightForeArm  17.9739 9.43415 9.4531
RightHand  0.0891927 0.878739 1.55565
LeftUpLeg  -7.19341 1.57995 3.47576
LeftLeg  28.4225 -5.1845 -2.70145
LeftFoot  -8.09627 0.258362 -7.42634
LeftToes  8.61288e-010 -5.99147e-011 2.1039e-011
395
root  -70.0923 40.4524 -2.07462 -9.92328 -60.4035 8.60931
RightUpLeg  -9.14669 -11.5332 -10.2554
RightLeg  13.3441 23.1851 4.1193
RightFoot  -1.66972 -0.552101 6.38176
RightToes  -9.31324e-010 0 -3.6325e-017
Spine  5.0781 -1.16948 5.75646
Spine1  8.01595 -0.560206 -0.587225
HEad  -16.709 1.8731 -4.31389
LeftShoulder1  -0.124586 3.83049 -31.944
LeftArm  -0.614296 31.3976 -26.5595
LeftForeArm  37.885 -6.84649 -8.38334
LeftHand  -0.175666 9.29243 -3.52222
RightShoulder  -0.726899 -5.55394 28.785
RightArm  23.6685 -1.83152 32.3578
RightForeArm  18.1377 8.69468 9.26985
RightHand  0.0361088 1.26913 0.52736
LeftUpLeg  -6.69982 -0.987069 4.52713
LeftLeg  28.1781 -6.93724 -3.6832
LeftFoot  -8.65853 0.235355 -7.83
LeftToes  8.61288e-010 -5.99147e-011 2.1039e-011
396
root  -69.7955 40.3712 -1.75667 -9.74365 -61.1942 8.17142
RightUpLeg  -9.34659 -11.4136 -10.4038
RightLeg  13.3745 23.8376 4.10239
RightFoot  -1.55553 -0.610459 7.00101
RightToes  -9.31324e-010 0 -3.6325e-017
Spine  5.25817 -1.06521 6.2177
Spine1  7.44006 -0.190667 -1.49507
HEad  -16.3335 1.50442 -3.99451
LeftShoulder1  -0.0213887 3.56149 -31.3291
LeftArm  -3.50941 33.816 -27.378
LeftForeArm  35.9902 -6.15883 -6.84347
LeftHand  -0.171296 9.18244 -3.53794
RightShoulder  -0.825814 -5.79781 29.3898
RightArm  23.2782 -0.839862 32.7123
RightForeArm  16.3436 9.49633 8.94403
RightHand  -0.0232672 1.80163 -0.547485
LeftUpLeg  -6.03516 -3.25175 5.38334
LeftLeg  27.9085 -7.81833 -4.14325
LeftFoot  -8.7737 0.208979 -6.9404
LeftToes  8.61288e-010 -5.99147e-011 2.1039e-011
397
root  -69.3783 40.2078 -1.41366 -9.27731 -61.8485 7.28049
RightUpLeg  -9.88942 -11.1076 -10.4566
RightLeg  14.1221 24.0902 4.23432
RightFoot  -1.73498 -0.653565 7.624
RightToes  -9.31324e-010 0 -3.6325e-017
Spine  5.18907 -0.981558 6.44717
Spine1  7.67544 -0.0636635 -1.42784
HEad  -16.501 1.10751 -3.96084
LeftShoulder1  -0.0298856 3.58299 -31.8175
LeftArm  -4.07011 33.504 -27.9121
LeftForeArm  34.7063 -5.3854 -6.50668
LeftHand  -0.157668 8.38759 -4.05954
RightShoulder  -0.833594 -5.81445 29.4435
RightArm  22.8861 -0.159793 33.7269
RightForeArm  13.7259 11.2902 8.16435
RightHand  -0.0403943 1.59883 -0.818282
LeftUpLeg  -5.59622 -5.04607 6.26509
LeftLeg  28.12 -8.83459 -4.76028
LeftFoot  -9.51379 0.15521 -6.17899
LeftToes  8.61288e-010 -5.99147e-011 2.1039e-011
398
root  -68.9011 40.0622 -1.0385 -8.83698 -62.5321 6.63257
RightUpLeg  -10.5054 -10.7624 -10.7747
RightLeg  14.4289 24.3364 4.39107
RightFoot  -1.60838 -0.710026 8.19638
RightToes  -9.31324e-010 0 -3.6325e-017
Spine  4.96125 -1.01773 6.70907
Spine1  7.86536 0.077232 -2.23705
HEad  -16.7161 0.420278 -3.00835
LeftShoulder1  -0.137009 3.86518 -31.7118
LeftArm  -3.40304 31.812 -28.873
LeftForeArm  35.8173 -5.21438 -7.11295
LeftHand  -0.231625 8.88352 -5.67843
RightShoulder  -0.940403 -6.06357 30.1654
RightArm  24.3136 1.12444 34.6519
RightForeArm  9.93582 13.5454 7.48152
RightHand  -0.0105914 2.02212 -0.338711
LeftUpLeg  -5.13471 -7.42006 6.52058
LeftLeg  27.7283 -9.42363 -5.00893
LeftFoot  -9.51568 0.152593 -5.96335
LeftToes  8.61288e-010 -5.99147e-011 2.1039e-011
399
root  -68.325 39.8699 -0.629619 -8.52164 -63.6726 5.75204
RightUpLeg  -11.0275 -9.76652 -10.9486
RightLeg  14.692 24.3409 4.32279
RightFoot  -1.45967 -0.802582 9.1516
RightToes  -9.31324e-010 0 -3.6325e-017
Spine  5.16262 -0.889569 6.93068
Spine1  7.88141 0.296977 -2.62825
HEad  -16.7269 0.219818 -2.53829
LeftShoulder1  -0.276012 4.22109 -32.3511
LeftArm  -2.98896 28.7549 -30.0593
LeftForeArm  38.9792 -5.24478 -7.6772
LeftHand  -0.305815 8.97295 -7.89771
RightShoulder  -0.9147 -5.99908 30.0719
RightArm  25.5889 1.90336 36.3348
RightForeArm  6.64762 16.1002 6.51095
RightHand  -0.000450001 2.82285 -0.227705
LeftUpLeg  -4.17009 -9.20519 6.56649
LeftLeg  27.2387 -11.0676 -5.80587
LeftFoot  -9.72272 0.142875 -6.31358
LeftToes  8.61288e-010 -5.99147e-011 2.1039e-011
400
root  -67.624 39.6418 -0.204207 -8.05804 -64.779 5.15619
RightUpLeg  -12.3125 -8.77954 -11.3735
RightLeg  15.1686 24.3895 4.46486
RightFoot  -1.03942 -0.931702 10.2267
RightToes  -9.31324e-010 0 -3.6325e-017
Spine  5.58426 -0.8941 6.94469
Spine1  7.10765 0.39251 -3.15499
HEad  -16.2852 -0.157484 -1.66192
LeftShoulder1  -0.348425 4.40338 -32.6063
LeftArm  -2.91743 26.7652 -31.691
LeftForeArm  38.3516 -7.76558 -7.92808
LeftHand  -0.23258 8.48655 -6.51723
RightShoulder  -0.916105 -5.96851 30.5696
RightArm  27.08 3.11492 38.0254
RightForeArm  4.84929 18.2996 5.7271
RightHand  0.00794738 3.51724 -0.14506
LeftUpLeg  -3.82857 -10.4827 6.17093
LeftLeg  26.81 -12.2668 -6.34047
LeftFoot  -12.7717 -0.00349616 -6.80333
LeftToes  8.61288e-010 -5.99147e-011 2.1039e-011
401
root  -66.8922 39.4932 0.286861 -8.82806 -66.599 5.56924
RightUpLeg  -12.8203 -7.59527 -12.1284
RightLeg  14.1328 25.0534 4.0074
RightFoot  0.0836896 -1.14644 11.4267
RightToes  -9.31324e-010 0 -3.6325e-017
Spine  5.43587 -0.635591 6.72332
Spine1  7.66862 0.869625 -4.44489
HEad  -16.456 -0.630817 -0.748738
LeftShoulder1  -0.350959 4.41346 -32.4276
LeftArm  -2.50221 22.8108 -34.4491
LeftForeArm  36.9936 -8.37735 -8.3045
LeftHand  -0.179213 8.34243 -4.98088
RightShoulder  -0.946035 -6.02567 30.9219
RightArm  27.5357 4.79423 40.3568
RightForeArm  3.87209 20.0674 5.1609
RightHand  -0.0291221 3.64977 -0.623112
LeftUpLeg  -3.03454 -9.21695 4.96373
LeftLeg  25.9814 -11.8399 -5.89062
LeftFoot  -15.2772 -0.0703222 -4.70103
LeftToes  8.61288e-010 -5.99147e-011 2.1039e-011
402
root  -65.9822 39.3343 0.728357 -10.2189 -67.4304 6.88559
RightUpLeg  -13.4581 -7.36424 -13.2724
RightLeg  12.5907 25.7727 3.09842
RightFoot  1.62985 -1.45164 12.8162
RightToes  -9.31324e-010 0 -3.6325e-017
Spine  6.1591 -0.734472 5.04971
Spine1  7.19899 0.574624 -4.25058
HEad  -16.9731 -1.65971 0.142711
LeftShoulder1  -0.385192 4.47969 -33.3432
LeftArm  -2.30663 17.4715 -36.5417
LeftForeArm  35.7517 -8.62057 -8.55042
LeftHand  -0.191107 8.65635 -4.72475
RightShoulder  -0.889307 -5.8993 30.5201
RightArm  27.5364 6.53194 43.337
RightForeArm  4.39191 21.0829 4.88093
RightHand  -0.0679393 4.37629 -1.09414
LeftUpLeg  -3.68844 -7.2285 3.11797
LeftLeg  26.0691 -10.0862 -5.0053
LeftFoot  -15.8698 0.0487284 -1.12707
LeftToes  8.61288e-010 -5.99147e-011 2.1039e-011
403
root  -65.0561 39.2246 1.1781 -14.2319 -69.073 10.5238
RightUpLeg  -13.6576 -8.23718 -14.5089
RightLeg  10.1261 29.0169 1.54661
RightFoot  3.73705 -1.85941 14.1684
RightToes  -9.31324e-010 0 -3.6325e-017
Spine  6.95601 -0.495814 2.99002
Spine1  7.4418 0.865016 -4.84988
HEad  -18.0277 -2.0693 1.17318
LeftShoulder1  -0.313625 4.2981 -33.2942
LeftArm  -1.08809 11.473 -38.7769
LeftForeArm  33.8762 -9.18737 -8.94237
LeftHand  -0.0684587 7.48488 -1.13009
RightShoulder  -0.844523 -5.77778 30.525
RightArm  27.4284 8.8514 46.908
RightForeArm  5.73589 20.7744 4.89634
RightHand  -0.0642471 4.72177 -1.03196
LeftUpLeg  -3.59082 -5.16178 0.558582
LeftLeg  25.5199 -8.57923 -4.10464
LeftFoot  -15.9066 0.1447 1.23966
LeftToes  8.61288e-010 -5.99147e-011 2.1039e-011
